<svg width="24" height="24" viewBox="0 0 24 24" fill="none" xmlns="http://www.w3.org/2000/svg">
<g id="icons">
<path id="Icon" d="M6 13V5C6 3.89543 6.89543 3 8 3H16C17.1046 3 18 3.89543 18 5V13M10 7H14M10 11H14M5 21H19C20.1046 21 21 20.1046 21 19V13.5388C21 12.8151 20.2551 12.331 19.5939 12.625L12.8123 15.639C12.2951 15.8688 11.7049 15.8688 11.1877 15.639L4.40614 12.625C3.74485 12.331 3 12.8151 3 13.5388V19C3 20.1046 3.89543 21 5 21Z" stroke="white" stroke-width="1.5" stroke-linecap="round"/>
</g>
</svg>
