<svg width="24" height="24" viewBox="0 0 24 24" fill="none" xmlns="http://www.w3.org/2000/svg">
<path d="M5.99997 8C5.99997 6.4087 6.63211 4.88258 7.75733 3.75736C8.88255 2.63214 10.4087 2 12 2C13.5913 2 15.1174 2.63214 16.2426 3.75736C17.3678 4.88258 18 6.4087 18 8C18 15 21 17 21 17H2.99997C2.99997 17 5.99997 15 5.99997 8Z" stroke="white" stroke-width="1.5" stroke-linecap="round" stroke-linejoin="round"/>
<path d="M10.3 21C10.4673 21.3044 10.7134 21.5583 11.0124 21.7352C11.3115 21.912 11.6525 22.0053 12 22.0053C12.3474 22.0053 12.6884 21.912 12.9875 21.7352C13.2865 21.5583 13.5326 21.3044 13.7 21" stroke="white" stroke-width="1.5" stroke-linecap="round" stroke-linejoin="round"/>
</svg>
